<svg width="49" height="55" viewBox="0 0 49 55" fill="none" xmlns="http://www.w3.org/2000/svg">
<path d="M19.0833 16.6666H35.3333C36.0516 16.6666 36.7405 16.3813 37.2484 15.8734C37.7563 15.3655 38.0417 14.6766 38.0417 13.9583C38.0417 13.24 37.7563 12.5511 37.2484 12.0432C36.7405 11.5353 36.0516 11.25 35.3333 11.25H19.0833C18.365 11.25 17.6762 11.5353 17.1683 12.0432C16.6603 12.5511 16.375 13.24 16.375 13.9583C16.375 14.6766 16.6603 15.3655 17.1683 15.8734C17.6762 16.3813 18.365 16.6666 19.0833 16.6666ZM13.6667 27.5H35.3333C36.0516 27.5 36.7405 27.2146 37.2484 26.7067C37.7563 26.1988 38.0417 25.5099 38.0417 24.7916C38.0417 24.0733 37.7563 23.3845 37.2484 22.8765C36.7405 22.3686 36.0516 22.0833 35.3333 22.0833H13.6667C12.9484 22.0833 12.2595 22.3686 11.7516 22.8765C11.2437 23.3845 10.9583 24.0733 10.9583 24.7916C10.9583 25.5099 11.2437 26.1988 11.7516 26.7067C12.2595 27.2146 12.9484 27.5 13.6667 27.5ZM13.6667 38.3333H35.3333C36.0516 38.3333 36.7405 38.048 37.2484 37.54C37.7563 37.0321 38.0417 36.3433 38.0417 35.625C38.0417 34.9067 37.7563 34.2178 37.2484 33.7099C36.7405 33.202 36.0516 32.9166 35.3333 32.9166H13.6667C12.9484 32.9166 12.2595 33.202 11.7516 33.7099C11.2437 34.2178 10.9583 34.9067 10.9583 35.625C10.9583 36.3433 11.2437 37.0321 11.7516 37.54C12.2595 38.048 12.9484 38.3333 13.6667 38.3333ZM46.1667 0.416626H2.83333C2.11504 0.416626 1.42616 0.701967 0.918252 1.20988C0.410341 1.71779 0.125 2.40666 0.125 3.12496V51.875C0.125 52.3779 0.265061 52.871 0.529487 53.2988C0.793914 53.7267 1.17226 54.0724 1.62213 54.2974C2.072 54.5223 2.57562 54.6175 3.07656 54.5723C3.57749 54.5272 4.05596 54.3434 4.45833 54.0416L10.0646 49.8437L15.6437 54.0416C16.1126 54.3932 16.6827 54.5833 17.2687 54.5833C17.8548 54.5833 18.4249 54.3932 18.8938 54.0416L24.5 49.8437L30.1062 54.0416C30.5751 54.3932 31.1452 54.5833 31.7312 54.5833C32.3173 54.5833 32.8874 54.3932 33.3563 54.0416L38.9354 49.8437L44.5417 54.0416C44.946 54.343 45.4264 54.5254 45.9288 54.5685C46.4312 54.6116 46.9357 54.5135 47.3854 54.2854C47.8321 54.0603 48.2077 53.716 48.4706 53.2905C48.7335 52.8651 48.8735 52.3751 48.875 51.875V3.12496C48.875 2.40666 48.5897 1.71779 48.0817 1.20988C47.5738 0.701967 46.885 0.416626 46.1667 0.416626ZM43.4583 46.4583L40.5604 44.2916C40.0916 43.94 39.5214 43.75 38.9354 43.75C38.3494 43.75 37.7792 43.94 37.3104 44.2916L31.7312 48.4895L26.125 44.2916C25.6562 43.94 25.086 43.75 24.5 43.75C23.914 43.75 23.3438 43.94 22.875 44.2916L17.2687 48.4895L11.6896 44.2916C11.2208 43.94 10.6506 43.75 10.0646 43.75C9.47858 43.75 8.90839 43.94 8.43958 44.2916L5.54167 46.4583V5.83329H43.4583V46.4583Z" fill="#8236C8"/>
</svg>
