<svg width="54" height="54" viewBox="0 0 54 54" fill="none" xmlns="http://www.w3.org/2000/svg">
<path d="M53.6669 24.3334C53.6744 22.4538 53.1851 20.6057 52.2485 18.976C51.3119 17.3464 49.9614 15.9932 48.3336 15.0534C48.3737 14.592 48.3737 14.1281 48.3336 13.6667C48.3336 11.545 47.4908 9.51017 45.9905 8.00988C44.4902 6.50959 42.4553 5.66673 40.3336 5.66673H39.8536C39.4095 4.43557 38.6702 3.33215 37.7004 2.45326C36.7306 1.57436 35.56 0.946823 34.2912 0.625676C33.0224 0.304529 31.6942 0.299581 30.423 0.611266C29.1519 0.922952 27.9766 1.54175 27.0003 2.4134C26.024 1.54175 24.8487 0.922952 23.5775 0.611266C22.3064 0.299581 20.9782 0.304529 19.7094 0.625676C18.4406 0.946823 17.27 1.57436 16.3002 2.45326C15.3304 3.33215 14.591 4.43557 14.1469 5.66673H13.6669C11.5452 5.66673 9.51039 6.50959 8.0101 8.00988C6.5098 9.51017 5.66695 11.545 5.66695 13.6667C5.62682 14.1281 5.62682 14.592 5.66695 15.0534C4.15351 15.9088 2.8721 17.1212 1.93426 18.5851C0.996416 20.0489 0.430572 21.7197 0.285982 23.4522C0.141392 25.1846 0.422439 26.9262 1.10466 28.5252C1.78688 30.1242 2.84959 31.5322 4.20028 32.6267C3.32634 34.2568 2.89126 36.086 2.93774 37.935C2.98422 39.784 3.51067 41.5891 4.46541 43.1731C5.42015 44.7572 6.77038 46.0658 8.38356 46.9705C9.99675 47.8752 11.8174 48.3448 13.6669 48.3334H14.1469C14.591 49.5646 15.3304 50.668 16.3002 51.5469C17.27 52.4258 18.4406 53.0533 19.7094 53.3745C20.9782 53.6956 22.3064 53.7006 23.5775 53.3889C24.8487 53.0772 26.024 52.4584 27.0003 51.5867C27.9766 52.4584 29.1519 53.0772 30.423 53.3889C31.6942 53.7006 33.0224 53.6956 34.2912 53.3745C35.56 53.0533 36.7306 52.4258 37.7004 51.5469C38.6702 50.668 39.4095 49.5646 39.8536 48.3334H40.3336C42.1718 48.3218 43.9758 47.8353 45.5707 46.9212C47.1655 46.007 48.497 44.6962 49.4361 43.1159C50.3751 41.5356 50.8898 39.7395 50.9303 37.9017C50.9707 36.0639 50.5356 34.2468 49.667 32.6267C50.9108 31.6309 51.9157 30.369 52.6079 28.9339C53.3001 27.4987 53.662 25.9267 53.6669 24.3334ZM24.3336 17.8001C23.7528 17.4679 23.1464 17.1825 22.5203 16.9467C21.8484 16.7204 21.1141 16.7703 20.479 17.0853C19.8439 17.4004 19.3599 17.9548 19.1336 18.6267C18.9073 19.2986 18.9572 20.0329 19.2722 20.668C19.5873 21.3031 20.1417 21.7871 20.8136 22.0134C21.8401 22.3845 22.7281 23.0616 23.3575 23.9534C23.987 24.8451 24.3277 25.9085 24.3336 27.0001V31.1334C23.7528 30.8012 23.1464 30.5159 22.5203 30.2801C21.8484 30.0537 21.1141 30.1036 20.479 30.4187C19.8439 30.7337 19.3599 31.2882 19.1336 31.9601C18.9073 32.6319 18.9572 33.3662 19.2722 34.0013C19.5873 34.6365 20.1417 35.1204 20.8136 35.3467C21.8401 35.7178 22.7281 36.395 23.3575 37.2867C23.987 38.1785 24.3277 39.2419 24.3336 40.3334V45.6667C24.3336 46.374 24.0527 47.0523 23.5526 47.5524C23.0525 48.0525 22.3742 48.3334 21.667 48.3334C21.151 48.33 20.6472 48.1771 20.2165 47.8931C19.7857 47.6091 19.4466 47.2063 19.2403 46.7334C19.6874 46.471 20.1152 46.1769 20.5203 45.8534C20.7899 45.6293 21.0128 45.3542 21.1761 45.044C21.3395 44.7337 21.4401 44.3943 21.4723 44.0452C21.5045 43.696 21.4676 43.344 21.3638 43.0091C21.2599 42.6742 21.0911 42.363 20.8669 42.0934C20.6428 41.8237 20.3678 41.6009 20.0575 41.4375C19.7473 41.2742 19.4079 41.1735 19.0587 41.1413C18.7096 41.1091 18.3575 41.146 18.0226 41.2499C17.6877 41.3538 17.3766 41.5226 17.1069 41.7467C16.1441 42.5573 14.9256 43.0013 13.6669 43.0001C12.2525 43.0001 10.8959 42.4382 9.89571 41.438C8.89552 40.4378 8.33362 39.0812 8.33362 37.6667C8.34638 36.663 8.64216 35.6832 9.18695 34.8401C9.78541 34.9474 10.3923 35.001 11.0003 35.0001C11.7075 35.0001 12.3858 34.7191 12.8859 34.219C13.386 33.7189 13.6669 33.0406 13.6669 32.3334C13.6669 31.6262 13.386 30.9479 12.8859 30.4478C12.3858 29.9477 11.7075 29.6667 11.0003 29.6667C10.3704 29.6704 9.74568 29.5527 9.16028 29.3201C8.2012 28.9742 7.36136 28.3606 6.74026 27.5521C6.11915 26.7436 5.74282 25.7739 5.65582 24.7581C5.56883 23.7423 5.77484 22.7228 6.24943 21.8204C6.72402 20.9181 7.44731 20.1707 8.33362 19.6667C8.71255 20.0154 9.12322 20.3278 9.56028 20.6001C10.1756 20.9537 10.9062 21.0484 11.5913 20.8634C12.2764 20.6783 12.86 20.2287 13.2136 19.6134C13.5672 18.9981 13.6619 18.2675 13.4769 17.5824C13.2919 16.8973 12.8423 16.3137 12.2269 15.9601C11.8516 15.753 11.5385 15.4491 11.3203 15.0801C11.0737 14.6519 10.9622 14.1593 11.0003 13.6667C11.0003 12.9595 11.2812 12.2812 11.7813 11.7811C12.2814 11.281 12.9597 11.0001 13.6669 11.0001C13.8527 10.9742 14.0412 10.9742 14.2269 11.0001C14.3681 11.4285 14.5374 11.8472 14.7336 12.2534C14.9078 12.559 15.1408 12.827 15.419 13.0422C15.6973 13.2574 16.0154 13.4153 16.3549 13.5071C16.6945 13.5988 17.0489 13.6224 17.3976 13.5766C17.7464 13.5307 18.0826 13.4164 18.3869 13.2401C18.9782 12.8844 19.4085 12.3133 19.5875 11.647C19.7665 10.9806 19.6803 10.2708 19.3469 9.66673C19.1232 9.25768 19.0041 8.79963 19.0003 8.3334C19.0003 7.62615 19.2812 6.94788 19.7813 6.44778C20.2814 5.94768 20.9597 5.66673 21.667 5.66673C22.3742 5.66673 23.0525 5.94768 23.5526 6.44778C24.0527 6.94788 24.3336 7.62615 24.3336 8.3334V17.8001ZM44.8403 29.3201C44.2549 29.5527 43.6302 29.6704 43.0003 29.6667C42.293 29.6667 41.6148 29.9477 41.1147 30.4478C40.6146 30.9479 40.3336 31.6262 40.3336 32.3334C40.3336 33.0406 40.6146 33.7189 41.1147 34.219C41.6148 34.7191 42.293 35.0001 43.0003 35.0001C43.6083 35.001 44.2152 34.9474 44.8136 34.8401C45.3584 35.6832 45.6542 36.663 45.667 37.6667C45.667 39.0812 45.105 40.4378 44.1049 41.438C43.1047 42.4382 41.7481 43.0001 40.3336 43.0001C39.075 43.0013 37.8565 42.5573 36.8936 41.7467C36.349 41.2941 35.647 41.0763 34.9418 41.1413C34.2367 41.2064 33.5863 41.5488 33.1336 42.0934C32.681 42.638 32.4632 43.3401 32.5282 44.0452C32.5932 44.7503 32.9357 45.4008 33.4803 45.8534C33.8854 46.1769 34.3131 46.471 34.7603 46.7334C34.5539 47.2063 34.2148 47.6091 33.7841 47.8931C33.3534 48.1771 32.8495 48.33 32.3336 48.3334C31.6264 48.3334 30.9481 48.0525 30.448 47.5524C29.9479 47.0523 29.667 46.374 29.667 45.6667V40.3334C29.6729 39.2419 30.0136 38.1785 30.643 37.2867C31.2725 36.395 32.1604 35.7178 33.1869 35.3467C33.8588 35.1204 34.4133 34.6365 34.7284 34.0013C35.0434 33.3662 35.0933 32.6319 34.8669 31.9601C34.6406 31.2882 34.1567 30.7337 33.5216 30.4187C32.8864 30.1036 32.1522 30.0537 31.4803 30.2801C30.8541 30.5159 30.2478 30.8012 29.667 31.1334V27.0001C29.6729 25.9085 30.0136 24.8451 30.643 23.9534C31.2725 23.0616 32.1604 22.3845 33.1869 22.0134C33.8588 21.7871 34.4133 21.3031 34.7284 20.668C35.0434 20.0329 35.0933 19.2986 34.8669 18.6267C34.6406 17.9548 34.1567 17.4004 33.5216 17.0853C32.8864 16.7703 32.1522 16.7204 31.4803 16.9467C30.8541 17.1825 30.2478 17.4679 29.667 17.8001V8.3334C29.667 7.62615 29.9479 6.94788 30.448 6.44778C30.9481 5.94768 31.6264 5.66673 32.3336 5.66673C33.0409 5.66673 33.7191 5.94768 34.2192 6.44778C34.7193 6.94788 35.0003 7.62615 35.0003 8.3334C34.9965 8.79963 34.8774 9.25768 34.6536 9.66673C34.4762 9.9695 34.3603 10.3043 34.3125 10.652C34.2647 10.9996 34.2861 11.3533 34.3752 11.6927C34.4644 12.0321 34.6197 12.3505 34.8322 12.6298C35.0447 12.9091 35.3103 13.1436 35.6136 13.3201C35.918 13.4964 36.2542 13.6107 36.6029 13.6566C36.9517 13.7024 37.3061 13.6788 37.6456 13.5871C37.9852 13.4953 38.3033 13.3374 38.5815 13.1222C38.8598 12.907 39.0927 12.639 39.2669 12.3334C39.4665 11.9012 39.6358 11.4557 39.7736 11.0001C39.9594 10.9742 40.1479 10.9742 40.3336 11.0001C41.0409 11.0001 41.7191 11.281 42.2192 11.7811C42.7193 12.2812 43.0003 12.9595 43.0003 13.6667C42.9962 14.1895 42.8386 14.6995 42.5469 15.1334C42.3289 15.4794 42.0259 15.764 41.667 15.9601C41.0516 16.3137 40.602 16.8973 40.417 17.5824C40.2319 18.2675 40.3267 18.9981 40.6803 19.6134C41.0339 20.2287 41.6175 20.6783 42.3026 20.8634C42.9877 21.0484 43.7183 20.9537 44.3336 20.6001C44.8124 20.3411 45.2598 20.028 45.667 19.6667C46.5563 20.1618 47.2854 20.9009 47.7682 21.797C48.251 22.693 48.4673 23.7085 48.3916 24.7235C48.3159 25.7385 47.9513 26.7106 47.341 27.5251C46.7306 28.3396 45.8999 28.9624 44.9469 29.3201H44.8403Z" fill="#8236C8"/>
</svg>
