<svg width="49" height="52" viewBox="0 0 49 52" fill="none" xmlns="http://www.w3.org/2000/svg">
<path d="M6.03535 19.8958C5.59383 20.3393 5.31949 20.9219 5.25894 21.5447C5.1984 22.1675 5.35538 22.7921 5.70323 23.3123C6.05107 23.8324 6.5683 24.2161 7.16701 24.3981C7.76572 24.58 8.40897 24.5491 8.98743 24.3104C9.31658 24.1632 9.61869 23.9618 9.88118 23.7146C10.1248 23.465 10.3179 23.1707 10.4499 22.8479C10.6048 22.518 10.679 22.1559 10.6666 21.7917C10.6636 21.0812 10.3815 20.4003 9.88118 19.8958C9.62941 19.642 9.32986 19.4405 8.99983 19.303C8.66979 19.1655 8.3158 19.0947 7.95827 19.0947C7.60073 19.0947 7.24674 19.1655 6.9167 19.303C6.58667 19.4405 6.28712 19.642 6.03535 19.8958ZM7.95827 5.54167C8.67656 5.54167 9.36543 5.82701 9.87335 6.33492C10.3813 6.84283 10.6666 7.5317 10.6666 8.25C10.6666 8.96829 10.3813 9.65717 9.87335 10.1651C9.36543 10.673 8.67656 10.9583 7.95827 10.9583C7.23997 10.9583 6.5511 11.2437 6.04318 11.7516C5.53527 12.2595 5.24993 12.9484 5.24993 13.6667C5.24993 14.385 5.53527 15.0738 6.04318 15.5817C6.5511 16.0897 7.23997 16.375 7.95827 16.375C9.38428 16.3741 10.7849 15.9979 12.0195 15.2842C13.2541 14.5705 14.2791 13.5444 14.9915 12.3091C15.7039 11.0738 16.0786 9.67276 16.0781 8.24674C16.0775 6.82073 15.7016 5.41998 14.9882 4.18524C14.2748 2.95051 13.249 1.92528 12.0139 1.21257C10.7787 0.499857 9.37777 0.124772 7.95175 0.125C6.52574 0.125229 5.1249 0.500762 3.88999 1.21387C2.65508 1.92697 1.62961 2.95253 0.916599 4.1875C0.737527 4.49661 0.621376 4.8381 0.574838 5.19229C0.5283 5.54648 0.552293 5.90638 0.645435 6.25126C0.738578 6.59614 0.89903 6.91918 1.11755 7.20179C1.33607 7.4844 1.60834 7.72098 1.91868 7.89791C2.54056 8.25101 3.27685 8.34381 3.9669 8.15608C4.65694 7.96834 5.24473 7.51531 5.60202 6.89583C5.84063 6.48253 6.18422 6.13961 6.59799 5.90181C7.01177 5.66401 7.48103 5.53977 7.95827 5.54167ZM40.4583 8.25H24.2083C23.49 8.25 22.8011 8.53534 22.2932 9.04325C21.7853 9.55116 21.4999 10.24 21.4999 10.9583C21.4999 11.6766 21.7853 12.3655 22.2932 12.8734C22.8011 13.3813 23.49 13.6667 24.2083 13.6667H40.4583C41.1766 13.6667 41.8654 13.952 42.3733 14.4599C42.8813 14.9678 43.1666 15.6567 43.1666 16.375V42.7L38.9145 38.7729C38.415 38.3053 37.7571 38.044 37.0728 38.0417H13.3749C12.6566 38.0417 11.9678 37.7563 11.4599 37.2484C10.9519 36.7405 10.6666 36.0516 10.6666 35.3333V32.625C10.6666 31.9067 10.3813 31.2178 9.87335 30.7099C9.36543 30.202 8.67656 29.9167 7.95827 29.9167C7.23997 29.9167 6.5511 30.202 6.04318 30.7099C5.53527 31.2178 5.24993 31.9067 5.24993 32.625V35.3333C5.24993 37.4882 6.10596 39.5548 7.62969 41.0786C9.15342 42.6023 11.22 43.4583 13.3749 43.4583H36.0166L44.1416 50.8521C44.6134 51.2951 45.2283 51.5545 45.8749 51.5833C46.2464 51.5793 46.6138 51.5058 46.9583 51.3667C47.4427 51.1552 47.8547 50.8067 48.1435 50.3639C48.4322 49.9212 48.5851 49.4036 48.5833 48.875V16.375C48.5833 14.2201 47.7272 12.1535 46.2035 10.6298C44.6798 9.10602 42.6131 8.25 40.4583 8.25Z" fill="#8236C8"/>
</svg>
