<svg width="42" height="48" viewBox="0 0 42 48" fill="none" xmlns="http://www.w3.org/2000/svg">
<path d="M27.02 22.3667C28.0805 21.0412 28.664 19.3975 28.6767 17.7C28.6767 15.664 27.8679 13.7115 26.4282 12.2718C24.9886 10.8321 23.036 10.0234 21 10.0234C18.964 10.0234 17.0114 10.8321 15.5718 12.2718C14.1321 13.7115 13.3233 15.664 13.3233 17.7C13.336 19.3975 13.9195 21.0412 14.98 22.3667C12.9001 23.6324 11.2684 25.5171 10.3133 27.7567C10.1797 28.0408 10.1047 28.3491 10.093 28.6629C10.0813 28.9767 10.1331 29.2896 10.2452 29.5829C10.3573 29.8763 10.5275 30.144 10.7455 30.3699C10.9635 30.5959 11.2249 30.7756 11.514 30.8982C11.8032 31.0207 12.1141 31.0837 12.4281 31.0832C12.7421 31.0828 13.0528 31.0189 13.3416 30.8955C13.6303 30.7722 13.8912 30.5917 14.1086 30.3651C14.326 30.1385 14.4954 29.8703 14.6067 29.5767C15.1429 28.3231 16.0337 27.2534 17.1694 26.499C18.3052 25.7446 19.6365 25.3383 21 25.33C22.3674 25.3338 23.7038 25.7379 24.8442 26.4926C25.9845 27.2473 26.8788 28.3195 27.4167 29.5767C27.5953 29.9984 27.8941 30.3583 28.2758 30.6114C28.6575 30.8645 29.1053 30.9996 29.5633 31C29.8756 30.9942 30.184 30.9309 30.4733 30.8134C31.0424 30.5716 31.4922 30.114 31.724 29.5409C31.9559 28.9678 31.9509 28.3261 31.71 27.7567C30.7488 25.5138 29.1085 23.6287 27.02 22.3667ZM21 20.6634C20.4037 20.6633 19.8208 20.4862 19.3253 20.1544C18.8298 19.8226 18.4441 19.3511 18.217 18.7998C17.9898 18.2484 17.9316 17.642 18.0497 17.0575C18.1677 16.473 18.4567 15.9367 18.88 15.5167C19.3033 15.0967 19.8418 14.8119 20.4272 14.6984C21.0126 14.5849 21.6186 14.6478 22.1681 14.8792C22.7177 15.1106 23.1862 15.5001 23.5141 15.9981C23.842 16.4962 24.0146 17.0804 24.01 17.6767C24.0038 18.4709 23.684 19.2306 23.1202 19.79C22.5564 20.3495 21.7943 20.6634 21 20.6634ZM35 0.666687H7C5.14348 0.666687 3.36301 1.40419 2.05025 2.71694C0.737498 4.02969 0 5.81017 0 7.66669V33.3334C0 35.1899 0.737498 36.9703 2.05025 38.2831C3.36301 39.5959 5.14348 40.3334 7 40.3334H13.0433L19.3433 46.6567C19.5614 46.8729 19.8199 47.044 20.1042 47.1602C20.3885 47.2763 20.6929 47.3351 21 47.3334C21.5561 47.3334 22.094 47.1348 22.5167 46.7734L30.03 40.3334H35C36.8565 40.3334 38.637 39.5959 39.9497 38.2831C41.2625 36.9703 42 35.1899 42 33.3334V7.66669C42 5.81017 41.2625 4.02969 39.9497 2.71694C38.637 1.40419 36.8565 0.666687 35 0.666687ZM37.3333 33.3334C37.3333 33.9522 37.0875 34.5457 36.6499 34.9833C36.2123 35.4209 35.6188 35.6667 35 35.6667H29.1667C28.6105 35.6666 28.0727 35.8652 27.65 36.2267L21.1167 41.8267L15.6567 36.3434C15.4386 36.1271 15.1801 35.956 14.8958 35.8399C14.6115 35.7238 14.3071 35.6649 14 35.6667H7C6.38116 35.6667 5.78767 35.4209 5.35008 34.9833C4.9125 34.5457 4.66667 33.9522 4.66667 33.3334V7.66669C4.66667 7.04785 4.9125 6.45436 5.35008 6.01677C5.78767 5.57919 6.38116 5.33335 7 5.33335H35C35.6188 5.33335 36.2123 5.57919 36.6499 6.01677C37.0875 6.45436 37.3333 7.04785 37.3333 7.66669V33.3334Z" fill="#8236C8"/>
</svg>
