<svg width="48" height="48" viewBox="0 0 48 48" fill="none" xmlns="http://www.w3.org/2000/svg">
<path d="M45.7003 19.52C45.0447 18.7328 44.2243 18.0992 43.297 17.6638C42.3697 17.2283 41.3581 17.0018 40.3337 17H29.6937L31.0003 13.6633C31.5438 12.2024 31.7248 10.6314 31.5278 9.08515C31.3308 7.53889 30.7616 6.0635 29.8691 4.78554C28.9766 3.50758 27.7874 2.46519 26.4035 1.7478C25.0196 1.03041 23.4824 0.659426 21.9237 0.666669C21.4748 0.667605 21.0358 0.797978 20.6592 1.04216C20.2825 1.28633 19.9843 1.63395 19.8003 2.04334L13.1503 17H7.66699C5.81048 17 4.03 17.7375 2.71724 19.0503C1.40449 20.363 0.666992 22.1435 0.666992 24V40.3333C0.666992 42.1899 1.40449 43.9703 2.71724 45.2831C4.03 46.5958 5.81048 47.3333 7.66699 47.3333H37.3703C39.0079 47.3328 40.5934 46.7581 41.8511 45.7094C43.1087 44.6606 43.9589 43.2041 44.2537 41.5933L47.217 25.26C47.4003 24.2506 47.3594 23.2132 47.0973 22.2212C46.8352 21.2293 46.3583 20.3072 45.7003 19.52ZM12.3337 42.6667H7.66699C7.04815 42.6667 6.45466 42.4208 6.01708 41.9833C5.57949 41.5457 5.33366 40.9522 5.33366 40.3333V24C5.33366 23.3812 5.57949 22.7877 6.01708 22.3501C6.45466 21.9125 7.04815 21.6667 7.66699 21.6667H12.3337V42.6667ZM42.667 24.42L39.7037 40.7533C39.6043 41.2969 39.3152 41.7876 38.8879 42.1379C38.4606 42.4883 37.9228 42.6757 37.3703 42.6667H17.0003V19.8233L23.347 5.54334C24.0003 5.7338 24.607 6.05762 25.1289 6.49436C25.6507 6.93111 26.0763 7.47129 26.3789 8.08082C26.6815 8.69035 26.8544 9.35598 26.8868 10.0357C26.9192 10.7154 26.8103 11.3945 26.567 12.03L25.3303 15.3667C25.0668 16.0719 24.9779 16.8305 25.071 17.5776C25.1642 18.3247 25.4368 19.0381 25.8654 19.6571C26.2941 20.276 26.8662 20.782 27.5328 21.132C28.1994 21.4819 28.9408 21.6654 29.6937 21.6667H40.3337C40.6764 21.6661 41.0152 21.7411 41.3257 21.8863C41.6362 22.0315 41.9109 22.2433 42.1303 22.5067C42.3551 22.7664 42.5198 23.0726 42.6125 23.4034C42.7053 23.7341 42.7239 24.0812 42.667 24.42Z" fill="#8236C8"/>
</svg>
