<svg width="57" height="43" viewBox="0 0 57 43" fill="none" xmlns="http://www.w3.org/2000/svg">
<path d="M55.3067 15.1734L52.64 13.7067L28.64 0.373379H28.3467C28.1832 0.304255 28.0135 0.250686 27.84 0.213379H27.3333H26.8533C26.6711 0.25071 26.4927 0.304257 26.32 0.373379H26.0267L2.02667 13.7067C1.61627 13.9393 1.27492 14.2766 1.03743 14.6841C0.799933 15.0917 0.674805 15.555 0.674805 16.0267C0.674805 16.4984 0.799933 16.9617 1.03743 17.3693C1.27492 17.7768 1.61627 18.1141 2.02667 18.3467L8.66667 22.0267V34.6667C8.66667 36.7884 9.50952 38.8233 11.0098 40.3236C12.5101 41.8239 14.5449 42.6667 16.6667 42.6667H38C40.1217 42.6667 42.1566 41.8239 43.6569 40.3236C45.1571 38.8233 46 36.7884 46 34.6667V22.0267L51.3333 19.04V26.6667C51.3333 27.374 51.6143 28.0522 52.1144 28.5523C52.6145 29.0524 53.2928 29.3334 54 29.3334C54.7072 29.3334 55.3855 29.0524 55.8856 28.5523C56.3857 28.0522 56.6667 27.374 56.6667 26.6667V17.4934C56.6659 17.0209 56.5395 16.557 56.3005 16.1494C56.0616 15.7417 55.7186 15.4049 55.3067 15.1734ZM40.6667 34.6667C40.6667 35.374 40.3857 36.0522 39.8856 36.5523C39.3855 37.0524 38.7072 37.3334 38 37.3334H16.6667C15.9594 37.3334 15.2811 37.0524 14.781 36.5523C14.281 36.0522 14 35.374 14 34.6667V24.9867L26.0267 31.6534L26.4267 31.8134H26.6667C26.888 31.8413 27.112 31.8413 27.3333 31.8134C27.5547 31.8413 27.7787 31.8413 28 31.8134H28.24C28.3816 31.7835 28.5169 31.7294 28.64 31.6534L40.6667 24.9867V34.6667ZM27.3333 26.2934L8.82667 16L27.3333 5.70671L45.84 16L27.3333 26.2934Z" fill="#8236C8"/>
</svg>
