<svg width="64" height="64" viewBox="0 0 64 64" fill="none" xmlns="http://www.w3.org/2000/svg">
<path d="M58.0001 32C57.9986 31.5076 57.8608 31.0251 57.6019 30.6062C57.343 30.1873 56.9732 29.8483 56.5334 29.6267L40.2134 21.4667V10.8C40.2134 8.62169 39.3481 6.5326 37.8078 4.9923C36.2675 3.452 34.1784 2.58667 32.0001 2.58667C29.8218 2.58667 27.7327 3.452 26.1924 4.9923C24.6521 6.5326 23.7868 8.62169 23.7868 10.8V21.4667L7.46676 29.6267C7.02699 29.8483 6.65717 30.1873 6.39829 30.6062C6.13941 31.0251 6.00159 31.5076 6.00009 32V40.88C5.99647 41.3144 6.09905 41.7432 6.29889 42.1289C6.49873 42.5146 6.7898 42.8457 7.14676 43.0933C7.50169 43.3365 7.9102 43.4902 8.3374 43.5413C8.76461 43.5924 9.19783 43.5393 9.60009 43.3867L23.7868 38.0533V48L18.9334 49.6C18.4038 49.7789 17.9437 50.1197 17.6183 50.5743C17.2929 51.0289 17.1187 51.5743 17.1201 52.1333V58.6667C17.1216 59.0195 17.193 59.3685 17.3303 59.6935C17.4677 60.0185 17.6681 60.313 17.9201 60.56C18.4168 61.0527 19.0872 61.3304 19.7868 61.3333H44.2401C44.9473 61.3333 45.6256 61.0524 46.1257 60.5523C46.6258 60.0522 46.9068 59.3739 46.9068 58.6667V52C46.9082 51.441 46.7339 50.8956 46.4085 50.441C46.0831 49.9864 45.6231 49.6456 45.0934 49.4667L40.2134 48V38.08L54.4001 43.4133C54.8024 43.566 55.2356 43.619 55.6628 43.568C56.09 43.5169 56.4985 43.3632 56.8534 43.12C57.2104 42.8724 57.5015 42.5413 57.7013 42.1556C57.9011 41.7698 58.0037 41.3411 58.0001 40.9067V32ZM38.5068 31.7333C38.1008 31.5761 37.6626 31.5206 37.2303 31.5718C36.798 31.6229 36.3848 31.7791 36.0268 32.0267C35.6735 32.2717 35.3848 32.5986 35.1851 32.9793C34.9854 33.36 34.8808 33.7834 34.8801 34.2133V49.7867C34.8805 50.349 35.0587 50.8968 35.3891 51.3518C35.7196 51.8068 36.1855 52.1457 36.7201 52.32L41.5468 53.92V56H22.4268V53.92L27.2534 52.32C27.7881 52.1457 28.2539 51.8068 28.5844 51.3518C28.9148 50.8968 29.093 50.349 29.0934 49.7867V34.2133C29.0927 33.7834 28.9881 33.36 28.7884 32.9793C28.5888 32.5986 28.3 32.2717 27.9468 32.0267C27.5887 31.7791 27.1755 31.6229 26.7432 31.5718C26.3109 31.5206 25.8727 31.5761 25.4668 31.7333L11.3068 37.0667V33.6533L27.6001 25.4933C28.0448 25.2754 28.4201 24.938 28.6839 24.5188C28.9476 24.0996 29.0895 23.6153 29.0934 23.12V10.88C29.0934 10.1162 29.3969 9.38364 29.937 8.84354C30.4771 8.30343 31.2096 8 31.9734 8C32.7372 8 33.4698 8.30343 34.0099 8.84354C34.55 9.38364 34.8534 10.1162 34.8534 10.88V23.12C34.8574 23.6153 34.9992 24.0996 35.263 24.5188C35.5267 24.938 35.902 25.2754 36.3468 25.4933L52.6401 33.6533V37.04L38.5068 31.7333Z" fill="#8236C8"/>
</svg>
