<svg width="55" height="55" viewBox="0 0 55 55" fill="none" xmlns="http://www.w3.org/2000/svg">
<path d="M48.9232 37.0062H36.6545C35.9362 37.0062 35.2473 37.2915 34.7394 37.7995C34.2315 38.3074 33.9462 38.9962 33.9462 39.7145C33.9462 40.4328 34.2315 41.1217 34.7394 41.6296C35.2473 42.1375 35.9362 42.4229 36.6545 42.4229H43.1545C40.167 45.5449 36.3143 47.7023 32.0914 48.6179C27.8685 49.5335 23.4682 49.1656 19.456 47.5612C15.4438 45.9569 12.0029 43.1896 9.57547 39.6148C7.14805 36.04 5.84497 31.821 5.83366 27.5C5.83366 26.7817 5.54832 26.0928 5.04041 25.5849C4.5325 25.077 3.84362 24.7916 3.12533 24.7916C2.40703 24.7916 1.71816 25.077 1.21024 25.5849C0.702334 26.0928 0.416992 26.7817 0.416992 27.5C0.43131 32.7888 1.99384 37.9577 4.91175 42.3688C7.82966 46.7799 11.9753 50.2401 16.8369 52.3224C21.6986 54.4048 27.0636 55.0181 32.2697 54.0867C37.4759 53.1553 42.2955 50.72 46.1337 47.0812V51.875C46.1337 52.5933 46.419 53.2821 46.9269 53.79C47.4348 54.298 48.1237 54.5833 48.842 54.5833C49.5603 54.5833 50.2492 54.298 50.7571 53.79C51.265 53.2821 51.5503 52.5933 51.5503 51.875V39.6875C51.5436 38.9877 51.2664 38.3177 50.7766 37.8179C50.2869 37.318 49.6227 37.0272 48.9232 37.0062ZM27.5003 0.416626C20.5572 0.43643 13.8869 3.12202 8.86699 7.91871V3.12496C8.86699 2.40666 8.58165 1.71779 8.07374 1.20988C7.56583 0.701967 6.87695 0.416626 6.15866 0.416626C5.44036 0.416626 4.75149 0.701967 4.24358 1.20988C3.73567 1.71779 3.45033 2.40666 3.45033 3.12496V15.3125C3.45033 16.0308 3.73567 16.7196 4.24358 17.2275C4.75149 17.7355 5.44036 18.0208 6.15866 18.0208H18.3462C19.0645 18.0208 19.7533 17.7355 20.2612 17.2275C20.7691 16.7196 21.0545 16.0308 21.0545 15.3125C21.0545 14.5942 20.7691 13.9053 20.2612 13.3974C19.7533 12.8895 19.0645 12.6041 18.3462 12.6041H11.8462C14.832 9.48378 18.6822 7.32694 22.9027 6.41046C27.1231 5.49398 31.5211 5.85969 35.5322 7.46063C39.5433 9.06157 42.9844 11.8247 45.4139 15.3953C47.8433 18.966 49.1503 23.1812 49.167 27.5C49.167 28.2183 49.4523 28.9071 49.9602 29.415C50.4682 29.923 51.157 30.2083 51.8753 30.2083C52.5936 30.2083 53.2825 29.923 53.7904 29.415C54.2983 28.9071 54.5837 28.2183 54.5837 27.5C54.5837 23.9433 53.8831 20.4215 52.5221 17.1356C51.161 13.8497 49.1661 10.8641 46.6511 8.34915C44.1362 5.83423 41.1506 3.83929 37.8647 2.47822C34.5788 1.11716 31.057 0.416626 27.5003 0.416626Z" fill="#8236C8"/>
</svg>
