<svg width="45" height="55" viewBox="0 0 45 55" fill="none" xmlns="http://www.w3.org/2000/svg">
<path d="M43.1643 4.88544C42.8496 4.63091 42.4819 4.45014 42.0882 4.3564C41.6946 4.26266 41.2849 4.25835 40.8893 4.34377C37.9953 4.95029 35.0077 4.95801 32.1106 4.36648C29.2134 3.77494 26.4681 2.59666 24.0434 0.904189C23.5901 0.589677 23.0515 0.421143 22.4997 0.421143C21.9479 0.421143 21.4093 0.589677 20.9559 0.904189C18.5313 2.59666 15.7859 3.77494 12.8888 4.36648C9.99168 4.95801 7.00413 4.95029 4.11011 4.34377C3.71452 4.25835 3.30483 4.26266 2.91113 4.3564C2.51743 4.45014 2.14975 4.63091 1.83511 4.88544C1.52088 5.14034 1.26777 5.46241 1.09436 5.82798C0.920946 6.19355 0.831648 6.59333 0.833023 6.99794V27.175C0.830616 31.0581 1.75595 34.8856 3.53197 38.3387C5.30799 41.7918 7.8833 44.7706 11.0434 47.0271L20.9289 54.0688C21.3875 54.3954 21.9366 54.5709 22.4997 54.5709C23.0628 54.5709 23.6118 54.3954 24.0705 54.0688L33.9559 47.0271C37.1161 44.7706 39.6914 41.7918 41.4674 38.3387C43.2434 34.8856 44.1688 31.0581 44.1664 27.175V6.99794C44.1677 6.59333 44.0784 6.19355 43.905 5.82798C43.7316 5.46241 43.4785 5.14034 43.1643 4.88544ZM38.7497 27.175C38.7518 30.1942 38.0328 33.1701 36.6525 35.8553C35.2722 38.5404 33.2706 40.8571 30.8143 42.6125L22.4997 48.5438L14.1851 42.6125C11.7287 40.8571 9.72715 38.5404 8.34689 35.8553C6.96662 33.1701 6.24761 30.1942 6.24969 27.175V10.1125C11.9275 10.5985 17.614 9.28113 22.4997 6.34794C27.3854 9.28113 33.0719 10.5985 38.7497 10.1125V27.175ZM26.6705 20.9729L19.3851 28.2854L16.9747 25.8479C16.4647 25.3379 15.773 25.0514 15.0518 25.0514C14.3305 25.0514 13.6388 25.3379 13.1289 25.8479C12.6189 26.3579 12.3324 27.0496 12.3324 27.7709C12.3324 28.4921 12.6189 29.1838 13.1289 29.6938L17.4622 34.0271C17.714 34.281 18.0135 34.4824 18.3435 34.6199C18.6736 34.7574 19.0276 34.8282 19.3851 34.8282C19.7426 34.8282 20.0966 34.7574 20.4267 34.6199C20.7567 34.4824 21.0563 34.281 21.308 34.0271L30.6247 24.7917C31.1347 24.2817 31.4212 23.59 31.4212 22.8688C31.4212 22.1475 31.1347 21.4558 30.6247 20.9459C30.1147 20.4359 29.423 20.1494 28.7018 20.1494C27.9805 20.1494 27.2888 20.4359 26.7789 20.9459L26.6705 20.9729Z" fill="#8236C8"/>
</svg>
