<svg width="61" height="61" viewBox="0 0 61 61" fill="none" xmlns="http://www.w3.org/2000/svg">
<path d="M57.583 11.5417H3.41634C2.69805 11.5417 2.00917 11.8271 1.50126 12.335C0.993349 12.8429 0.708008 13.5317 0.708008 14.25V25.0834C0.712719 26.7597 1.2358 28.3935 2.20555 29.7608C3.17529 31.1282 4.54423 32.1621 6.12467 32.7209V57.5834C6.12467 58.3017 6.41002 58.9906 6.91793 59.4985C7.42584 60.0064 8.11471 60.2917 8.83301 60.2917H52.1663C52.8846 60.2917 53.5735 60.0064 54.0814 59.4985C54.5893 58.9906 54.8747 58.3017 54.8747 57.5834V32.7209C56.4551 32.1621 57.8241 31.1282 58.7938 29.7608C59.7635 28.3935 60.2866 26.7597 60.2913 25.0834V14.25C60.2913 13.5317 60.006 12.8429 59.4981 12.335C58.9902 11.8271 58.3013 11.5417 57.583 11.5417ZM38.6247 16.9584H44.0413V25.0834C44.0413 25.8017 43.756 26.4905 43.2481 26.9985C42.7402 27.5064 42.0513 27.7917 41.333 27.7917C40.6147 27.7917 39.9258 27.5064 39.4179 26.9985C38.91 26.4905 38.6247 25.8017 38.6247 25.0834V16.9584ZM27.7913 16.9584H33.208V25.0834C33.208 25.8017 32.9227 26.4905 32.4148 26.9985C31.9068 27.5064 31.218 27.7917 30.4997 27.7917C29.7814 27.7917 29.0925 27.5064 28.5846 26.9985C28.0767 26.4905 27.7913 25.8017 27.7913 25.0834V16.9584ZM16.958 16.9584H22.3747V25.0834C22.3747 25.8017 22.0893 26.4905 21.5814 26.9985C21.0735 27.5064 20.3846 27.7917 19.6663 27.7917C18.948 27.7917 18.2592 27.5064 17.7513 26.9985C17.2434 26.4905 16.958 25.8017 16.958 25.0834V16.9584ZM8.83301 27.7917C8.11471 27.7917 7.42584 27.5064 6.91793 26.9985C6.41002 26.4905 6.12467 25.8017 6.12467 25.0834V16.9584H11.5413V25.0834C11.5413 25.8017 11.256 26.4905 10.7481 26.9985C10.2402 27.5064 9.5513 27.7917 8.83301 27.7917ZM35.9163 54.875H25.083V49.4584C25.083 48.0218 25.6537 46.644 26.6695 45.6282C27.6853 44.6124 29.0631 44.0417 30.4997 44.0417C31.9363 44.0417 33.314 44.6124 34.3298 45.6282C35.3457 46.644 35.9163 48.0218 35.9163 49.4584V54.875ZM49.458 54.875H41.333V49.4584C41.333 46.5852 40.1916 43.8297 38.16 41.7981C36.1284 39.7664 33.3729 38.625 30.4997 38.625C27.6265 38.625 24.871 39.7664 22.8394 41.7981C20.8077 43.8297 19.6663 46.5852 19.6663 49.4584V54.875H11.5413V32.7209C12.5368 32.3514 13.4552 31.8004 14.2497 31.0959C15.7393 32.4283 17.6678 33.1649 19.6663 33.1649C21.6649 33.1649 23.5934 32.4283 25.083 31.0959C26.5727 32.4283 28.5011 33.1649 30.4997 33.1649C32.4982 33.1649 34.4267 32.4283 35.9163 31.0959C37.406 32.4283 39.3344 33.1649 41.333 33.1649C43.3316 33.1649 45.26 32.4283 46.7497 31.0959C47.5442 31.8004 48.4625 32.3514 49.458 32.7209V54.875ZM54.8747 25.0834C54.8747 25.8017 54.5893 26.4905 54.0814 26.9985C53.5735 27.5064 52.8846 27.7917 52.1663 27.7917C51.448 27.7917 50.7592 27.5064 50.2513 26.9985C49.7434 26.4905 49.458 25.8017 49.458 25.0834V16.9584H54.8747V25.0834ZM9.64551 6.12504H52.1663C52.8846 6.12504 53.5735 5.8397 54.0814 5.33179C54.5893 4.82388 54.8747 4.135 54.8747 3.41671C54.8747 2.69841 54.5893 2.00954 54.0814 1.50163C53.5735 0.993715 52.8846 0.708374 52.1663 0.708374H9.64551C8.92721 0.708374 8.23834 0.993715 7.73043 1.50163C7.22252 2.00954 6.93717 2.69841 6.93717 3.41671C6.93717 4.135 7.22252 4.82388 7.73043 5.33179C8.23834 5.8397 8.92721 6.12504 9.64551 6.12504Z" fill="#8236C8"/>
</svg>
