<svg width="48" height="46" viewBox="0 0 48 46" fill="none" xmlns="http://www.w3.org/2000/svg">
<path d="M47.3334 17.5633C47.1861 17.1365 46.9181 16.7616 46.5619 16.4841C46.2057 16.2067 45.7766 16.0385 45.3268 16L32.0501 14.0633L26.1001 1.99997C25.909 1.60547 25.6107 1.27277 25.2393 1.03998C24.8679 0.807184 24.4384 0.683716 24.0001 0.683716C23.5618 0.683716 23.1323 0.807184 22.7609 1.03998C22.3895 1.27277 22.0912 1.60547 21.9001 1.99997L15.9501 14.04L2.67344 16C2.2416 16.0614 1.8356 16.2426 1.50153 16.523C1.16745 16.8035 0.918683 17.1719 0.783443 17.5866C0.659648 17.9919 0.648539 18.4232 0.751308 18.8343C0.854077 19.2453 1.06684 19.6207 1.36678 19.92L11.0034 29.2533L8.67011 42.5066C8.58681 42.9441 8.63043 43.3962 8.79581 43.8097C8.96119 44.2232 9.24144 44.5807 9.60344 44.84C9.95628 45.0922 10.3724 45.2411 10.8052 45.27C11.238 45.2988 11.6702 45.2065 12.0534 45.0033L24.0001 38.7733L35.9001 45.0266C36.2276 45.2114 36.5974 45.3079 36.9734 45.3066C37.4677 45.3084 37.9498 45.1532 38.3501 44.8633C38.7121 44.604 38.9924 44.2465 39.1577 43.833C39.3231 43.4196 39.3667 42.9674 39.2834 42.53L36.9501 29.2766L46.5868 19.9433C46.9237 19.6579 47.1727 19.2827 47.3048 18.8615C47.437 18.4402 47.4469 17.99 47.3334 17.5633ZM32.9834 26.8966C32.7098 27.1613 32.5051 27.4889 32.3871 27.8509C32.2692 28.2129 32.2416 28.5982 32.3068 28.9733L33.9868 38.75L25.2134 34.0833C24.8759 33.9035 24.4992 33.8095 24.1168 33.8095C23.7343 33.8095 23.3577 33.9035 23.0201 34.0833L14.2468 38.75L15.9268 28.9733C15.992 28.5982 15.9644 28.2129 15.8464 27.8509C15.7285 27.4889 15.5238 27.1613 15.2501 26.8966L8.25011 19.8966L18.0734 18.4733C18.4514 18.4207 18.8108 18.2762 19.1199 18.0525C19.4291 17.8288 19.6787 17.5326 19.8468 17.19L24.0001 8.29997L28.3868 17.2133C28.5549 17.5559 28.8044 17.8521 29.1136 18.0758C29.4228 18.2996 29.7821 18.4441 30.1601 18.4966L39.9834 19.92L32.9834 26.8966Z" fill="#8236C8"/>
</svg>
