<svg width="61" height="53" viewBox="0 0 61 53" fill="none" xmlns="http://www.w3.org/2000/svg">
<path d="M0.708008 27.8542V41.3959C0.708008 42.1142 0.993349 42.803 1.50126 43.311C2.00917 43.8189 2.69805 44.1042 3.41634 44.1042H6.12467C6.12467 46.2591 6.9807 48.3257 8.50443 49.8495C10.0282 51.3732 12.0948 52.2292 14.2497 52.2292C16.4046 52.2292 18.4712 51.3732 19.9949 49.8495C21.5187 48.3257 22.3747 46.2591 22.3747 44.1042H38.6247C38.6247 46.2591 39.4807 48.3257 41.0044 49.8495C42.5282 51.3732 44.5948 52.2292 46.7497 52.2292C48.9046 52.2292 50.9712 51.3732 52.4949 49.8495C54.0187 48.3257 54.8747 46.2591 54.8747 44.1042H57.583C58.3013 44.1042 58.9902 43.8189 59.4981 43.311C60.006 42.803 60.2913 42.1142 60.2913 41.3959V8.89587C60.2913 6.74099 59.4353 4.67437 57.9116 3.15063C56.3879 1.6269 54.3212 0.770874 52.1663 0.770874H27.7913C25.6365 0.770874 23.5698 1.6269 22.0461 3.15063C20.5224 4.67437 19.6663 6.74099 19.6663 8.89587V14.3125H14.2497C12.9883 14.3125 11.7443 14.6062 10.6161 15.1703C9.48786 15.7344 8.50649 16.5534 7.74967 17.5625L1.24967 26.2292C1.17046 26.3469 1.10674 26.4744 1.06009 26.6084L0.897591 26.9063C0.778062 27.2083 0.713844 27.5294 0.708008 27.8542ZM44.0413 44.1042C44.0413 43.5686 44.2002 43.0449 44.4978 42.5995C44.7954 42.1542 45.2184 41.807 45.7132 41.602C46.2081 41.397 46.7527 41.3434 47.278 41.4479C47.8034 41.5524 48.286 41.8104 48.6648 42.1891C49.0435 42.5679 49.3015 43.0505 49.406 43.5758C49.5105 44.1012 49.4568 44.6458 49.2519 45.1406C49.0469 45.6355 48.6997 46.0585 48.2543 46.3561C47.809 46.6537 47.2853 46.8125 46.7497 46.8125C46.0314 46.8125 45.3425 46.5272 44.8346 46.0193C44.3267 45.5114 44.0413 44.8225 44.0413 44.1042ZM25.083 8.89587C25.083 8.17758 25.3684 7.48871 25.8763 6.98079C26.3842 6.47288 27.073 6.18754 27.7913 6.18754H52.1663C52.8846 6.18754 53.5735 6.47288 54.0814 6.98079C54.5893 7.48871 54.8747 8.17758 54.8747 8.89587V38.6875H52.7622C52.0006 37.8497 51.0724 37.1803 50.037 36.7222C49.0016 36.2641 47.8819 36.0275 46.7497 36.0275C45.6175 36.0275 44.4977 36.2641 43.4623 36.7222C42.4269 37.1803 41.4987 37.8497 40.7372 38.6875H25.083V8.89587ZM19.6663 25.1459H8.83301L12.083 20.8125C12.3353 20.4762 12.6624 20.2032 13.0385 20.0151C13.4145 19.8271 13.8292 19.7292 14.2497 19.7292H19.6663V25.1459ZM11.5413 44.1042C11.5413 43.5686 11.7002 43.0449 11.9978 42.5995C12.2954 42.1542 12.7184 41.807 13.2132 41.602C13.7081 41.397 14.2527 41.3434 14.778 41.4479C15.3034 41.5524 15.786 41.8104 16.1648 42.1891C16.5435 42.5679 16.8015 43.0505 16.906 43.5758C17.0105 44.1012 16.9568 44.6458 16.7519 45.1406C16.5469 45.6355 16.1997 46.0585 15.7543 46.3561C15.309 46.6537 14.7853 46.8125 14.2497 46.8125C13.5314 46.8125 12.8425 46.5272 12.3346 46.0193C11.8267 45.5114 11.5413 44.8225 11.5413 44.1042ZM6.12467 30.5625H19.6663V38.0917C18.068 36.6632 15.9698 35.9243 13.8291 36.0359C11.6883 36.1475 9.67834 37.1006 8.23717 38.6875H6.12467V30.5625Z" fill="#8236C8"/>
</svg>
