<svg width="118" height="142" viewBox="0 0 118 142" fill="none" xmlns="http://www.w3.org/2000/svg">
<path d="M81.3855 108.25C80.3364 109.266 79.2735 110.259 78.1966 111.228L-87.9093 -54.8778C-86.9403 -55.9547 -85.9468 -57.017 -84.931 -58.066L81.3855 108.25ZM-82.0128 -60.9787C-80.9613 -61.9925 -79.8957 -62.9831 -78.8163 -63.9501L87.2688 102.135C86.3018 103.214 85.3113 104.28 84.2974 105.332L-82.0128 -60.9787ZM75.0774 113.94C73.9532 114.883 72.8153 115.801 71.6648 116.695L-93.3763 -48.3461C-92.4821 -49.4965 -91.5632 -50.6338 -90.6203 -51.758L75.0774 113.94ZM-75.691 -66.6542C-74.5645 -67.5947 -73.4255 -68.5121 -72.2728 -69.4039L92.7226 95.5916C91.8308 96.7443 90.9142 97.8839 89.9736 99.0104L-75.691 -66.6542ZM68.3309 119.191C67.1294 120.058 65.9159 120.901 64.6897 121.717L-98.3978 -41.3703C-97.5814 -42.5965 -96.7393 -43.8106 -95.8718 -45.0122L68.3309 119.191ZM-68.9327 -71.8933C-67.7287 -72.7584 -66.5119 -73.5976 -65.2833 -74.4117L97.7311 88.6027C96.9171 89.8312 96.0771 91.0475 95.212 92.2515L-68.9327 -71.8933ZM61.1342 123.991C59.8517 124.78 58.5581 125.543 57.2527 126.278L-102.958 -33.9333C-102.223 -35.2387 -101.461 -36.5329 -100.672 -37.8154L61.1342 123.991ZM-61.7222 -76.6801C-60.4371 -77.4663 -59.1403 -78.2258 -57.8324 -78.9581L102.278 81.1518C101.545 82.4597 100.785 83.7559 99.9988 85.0409L-61.7222 -76.6801ZM53.4644 128.319C52.0958 129.024 50.7164 129.701 49.3267 130.349L-107.03 -26.008C-106.382 -27.3975 -105.705 -28.7765 -104.999 -30.145L53.4644 128.319ZM-54.0365 -80.9918C-52.6654 -81.6944 -51.2841 -82.3698 -49.892 -83.015L106.334 73.2107C105.688 74.6029 105.014 75.9847 104.311 77.356L-54.0365 -80.9918ZM45.2892 132.141C43.8273 132.756 42.3553 133.34 40.8746 133.894L-110.575 -17.5559C-110.022 -19.0366 -109.438 -20.5086 -108.822 -21.9705L45.2892 132.141ZM-45.844 -84.798C-44.3795 -85.4106 -42.9045 -85.9909 -41.4212 -86.5416L109.86 64.7399C109.31 66.2233 108.729 67.6982 108.117 69.1628L-45.844 -84.798ZM36.5615 135.412C34.9973 135.928 33.4249 136.412 31.8445 136.861L-113.543 -8.52576C-113.094 -10.106 -112.609 -11.6781 -112.092 -13.2421L36.5615 135.412ZM-37.0991 -88.0504C-35.5314 -88.5637 -33.9556 -89.0452 -32.3717 -89.4909L112.81 55.6904C112.364 57.2745 111.883 58.8506 111.37 60.4185L-37.0991 -88.0504ZM27.2241 138.072C25.5422 138.477 23.8533 138.844 22.1584 139.174L-115.855 1.16036C-115.526 -0.534392 -115.157 -2.22298 -114.752 -3.9047L27.2241 138.072ZM-27.7417 -90.6903C-26.056 -91.0914 -24.3635 -91.4556 -22.6649 -91.7814L115.101 45.9843C114.775 47.6829 114.411 49.3754 114.01 51.0611L-27.7417 -90.6903ZM17.1851 140.03C15.3647 140.304 13.5391 140.534 11.7099 140.723L-117.404 11.6088C-117.216 9.77984 -116.985 7.95451 -116.711 6.13428L17.1851 140.03ZM-17.6806 -92.6266C-15.8557 -92.896 -14.0258 -93.1225 -12.1923 -93.3061L116.625 35.511C116.441 37.3447 116.215 39.1749 115.946 41L-17.6806 -92.6266ZM6.31199 141.154C4.32047 141.268 2.32676 141.33 0.332652 141.343L-118.024 22.9861C-118.012 20.992 -117.949 18.9982 -117.836 17.0067L6.31199 141.154ZM-6.77916 -93.7225C-4.78179 -93.8302 -2.78228 -93.8873 -0.78256 -93.8937L117.212 24.1013C117.206 26.101 117.149 28.1005 117.041 30.0979L-6.77916 -93.7225ZM-5.60939 141.23C-7.82854 141.133 -10.0454 140.973 -12.2572 140.75L-117.432 35.5759C-117.654 33.3641 -117.814 31.1472 -117.912 28.9281L-5.60939 141.23ZM5.17675 -93.7639C7.40486 -93.6587 9.6304 -93.489 11.8508 -93.2577L116.576 11.468C116.808 13.6883 116.977 15.9139 117.083 18.142L5.17675 -93.7639ZM-18.9547 139.882C-21.5142 139.476 -24.0628 138.985 -26.5961 138.409L-115.089 49.9155C-115.665 47.3819 -116.157 44.8332 -116.564 42.2734L-18.9547 139.882ZM18.5786 -92.3607C21.1512 -91.9422 23.7126 -91.439 26.2581 -90.8491L114.169 -2.93865C114.758 -0.393425 115.261 2.16782 115.679 4.74009L18.5786 -92.3607ZM-34.5227 136.313C-37.7188 135.348 -40.8817 134.243 -44.0024 133L-109.68 67.3218C-110.924 64.2012 -112.028 61.0383 -112.994 57.8422L-34.5227 136.313ZM34.2344 -88.7023C37.4603 -87.7114 40.6521 -86.5794 43.7997 -85.3048L108.624 -20.4803C109.899 -17.3327 111.031 -14.1408 112.022 -10.915L34.2344 -88.7023ZM-54.7678 128.065C-60.6533 124.997 -66.3328 121.396 -71.737 117.264L-93.9453 95.0557C-98.0769 89.6518 -101.678 83.9725 -104.746 78.0872L-54.7678 128.065ZM54.7274 -80.2066C60.9332 -76.9119 66.9067 -73.0238 72.5625 -68.5394L91.8581 -49.2438C96.3428 -43.5878 100.231 -37.6141 103.526 -31.408L54.7274 -80.2066Z" fill="#F3F3F3"/>
</svg>
