<svg width="1367" height="544" viewBox="0 0 1367 544" fill="none" xmlns="http://www.w3.org/2000/svg">
<g opacity="0.7">
<path d="M856.08 543.16C744.099 543.16 653 452.061 653 340.08C653 228.099 744.099 137 856.08 137C968.061 137 1059.16 228.099 1059.16 340.08C1059.14 452.061 968.039 543.16 856.08 543.16ZM856.08 143.825C747.865 143.825 659.825 231.865 659.825 340.08C659.825 448.295 747.865 536.335 856.08 536.335C964.295 536.335 1052.33 448.295 1052.33 340.08C1052.33 231.865 964.295 143.825 856.08 143.825Z" fill="#F0F0F0"/>
<path d="M856.08 520.973C756.337 520.973 675.187 439.823 675.187 340.08C675.187 240.337 756.337 159.186 856.08 159.186C955.823 159.186 1036.97 240.337 1036.97 340.08C1036.95 439.823 955.801 520.973 856.08 520.973ZM856.08 166.011C760.103 166.011 682.011 244.103 682.011 340.08C682.011 436.057 760.103 514.148 856.08 514.148C952.057 514.148 1030.15 436.057 1030.15 340.08C1030.15 244.103 952.057 166.011 856.08 166.011Z" fill="#F0F0F0"/>
<path d="M856.08 498.787C768.575 498.787 697.373 427.585 697.373 340.08C697.373 252.575 768.575 181.373 856.08 181.373C943.585 181.373 1014.79 252.575 1014.79 340.08C1014.77 427.585 943.585 498.787 856.08 498.787ZM856.08 188.198C772.319 188.198 704.198 256.34 704.198 340.08C704.198 423.841 772.341 491.962 856.08 491.962C939.819 491.962 1007.96 423.819 1007.96 340.08C1007.96 256.34 939.819 188.198 856.08 188.198Z" fill="#F0F0F0"/>
<path d="M856.079 476.6C780.812 476.6 719.559 415.368 719.559 340.08C719.559 264.813 780.791 203.559 856.079 203.559C931.346 203.559 992.6 264.791 992.6 340.08C992.578 415.368 931.346 476.6 856.079 476.6ZM856.079 210.384C784.556 210.384 726.384 268.578 726.384 340.08C726.384 411.603 784.578 469.776 856.079 469.776C927.581 469.776 985.775 411.582 985.775 340.08C985.775 268.578 927.581 210.384 856.079 210.384Z" fill="#F0F0F0"/>
<path d="M856.08 454.414C793.03 454.414 741.746 403.131 741.746 340.08C741.746 277.029 793.03 225.746 856.08 225.746C919.131 225.746 970.414 277.029 970.414 340.08C970.393 403.131 919.109 454.414 856.08 454.414ZM856.08 232.571C796.795 232.571 748.571 280.795 748.571 340.08C748.571 399.365 796.795 447.61 856.08 447.61C915.365 447.61 963.589 399.386 963.589 340.08C963.589 280.795 915.365 232.571 856.08 232.571Z" fill="#F0F0F0"/>
<path d="M856.08 432.228C805.267 432.228 763.933 390.893 763.933 340.08C763.933 289.267 805.267 247.932 856.08 247.932C906.893 247.932 948.228 289.267 948.228 340.08C948.228 390.893 906.872 432.228 856.08 432.228ZM856.08 254.757C809.033 254.757 770.736 293.033 770.736 340.101C770.736 387.149 809.011 425.445 856.08 425.445C903.149 425.445 941.424 387.17 941.424 340.101C941.403 293.033 903.127 254.757 856.08 254.757Z" fill="#F0F0F0"/>
</g>
<path d="M1297.62 196.626C1288.46 187.817 1291.91 167.319 1296.01 155.292C1300.1 143.265 1306.97 131.998 1308.37 119.369C1311.32 92.5501 1285.31 67.7519 1258.34 68.1844C1231.35 68.6213 1199.62 81.333 1190.86 114.078C1183.89 140.142 1201.58 171.241 1217.44 193.064C1231.38 212.242 1251.68 227.222 1274.79 232.502C1297.89 237.781 1323.68 232.631 1341.52 217.021C1351.97 207.877 1360.09 186.422 1341.57 189.306C1327.19 191.561 1311.86 210.333 1297.62 196.626Z" fill="url(#paint0_linear_1_10596)"/>
<path d="M-16.4649 148.523C-27.999 126.823 -30.029 102.119 -23.4882 76.2508C-20.7314 65.3299 -16.8139 54.5202 -17.2983 43.0852C-17.7793 31.6422 -23.8963 19.0518 -35.4207 14.1334C-49.5693 8.1031 -65.266 16.0008 -74.2999 26.5798C-93.2947 48.8281 -105.139 79.1206 -92.0166 108.936C-81.8013 132.155 -59.3944 150.987 -51.7274 174.788C-44.2999 197.832 -51.7794 222.518 -41.1974 244.785C-35.6243 256.515 -25.4975 266.345 -14.4547 274.529C1.18949 286.11 19.7262 295.122 38.9694 296.885C58.2218 298.652 78.0662 292.172 87.7001 277.951C112.954 240.673 69.4064 198.249 39.9858 180.305C20.0866 168.162 -7.75948 164.886 -16.4649 148.523Z" fill="url(#paint1_linear_1_10596)"/>
<g opacity="0.7">
<g opacity="0.7">
<path opacity="0.7" d="M7.74432 260.047C8.75606 260.319 9.8009 259.7 10.078 258.666C10.3552 257.631 9.75967 256.573 8.74793 256.302C7.73618 256.031 6.69135 256.65 6.41421 257.684C6.13708 258.718 6.73258 259.776 7.74432 260.047Z" fill="#C9C2C2"/>
<path opacity="0.7" d="M24.1799 264.451C25.1916 264.722 26.2364 264.103 26.5136 263.069C26.7907 262.035 26.1952 260.977 25.1835 260.706C24.1717 260.434 23.1269 261.053 22.8498 262.087C22.5726 263.122 23.1681 264.18 24.1799 264.451Z" fill="#C9C2C2"/>
<path opacity="0.7" d="M40.6271 268.858C41.6389 269.129 42.6837 268.511 42.9608 267.476C43.238 266.442 42.6425 265.384 41.6307 265.113C40.619 264.842 39.5742 265.46 39.297 266.495C39.0199 267.529 39.6154 268.587 40.6271 268.858Z" fill="#C9C2C2"/>
<path opacity="0.7" d="M59.3964 271.88C59.1204 272.91 58.0702 273.532 57.0627 273.262C56.0551 272.992 55.453 271.942 55.7326 270.899C56.0086 269.869 57.0587 269.247 58.0663 269.517C59.0738 269.787 59.676 270.837 59.3964 271.88Z" fill="#C9C2C2"/>
<path opacity="0.7" d="M73.4973 277.666C74.509 277.937 75.5538 277.318 75.831 276.284C76.1081 275.25 75.5126 274.191 74.5009 273.92C73.4891 273.649 72.4443 274.268 72.1671 275.302C71.89 276.336 72.4855 277.395 73.4973 277.666Z" fill="#C9C2C2"/>
<path opacity="0.7" d="M92.2655 280.688C91.9895 281.718 90.9394 282.339 89.9318 282.069C88.9243 281.799 88.3221 280.749 88.6017 279.706C88.8777 278.676 89.9279 278.054 90.9354 278.324C91.9561 278.597 92.5451 279.644 92.2655 280.688Z" fill="#C9C2C2"/>
<path opacity="0.7" d="M106.38 286.477C107.392 286.748 108.437 286.129 108.714 285.095C108.991 284.061 108.395 283.002 107.384 282.731C106.372 282.46 105.327 283.079 105.05 284.113C104.773 285.147 105.368 286.206 106.38 286.477Z" fill="#C9C2C2"/>
<path opacity="0.7" d="M125.149 289.499C124.873 290.529 123.823 291.15 122.816 290.88C121.808 290.611 121.206 289.56 121.486 288.517C121.761 287.487 122.812 286.865 123.819 287.135C124.84 287.408 125.429 288.455 125.149 289.499Z" fill="#C9C2C2"/>
<path opacity="0.7" d="M139.263 295.288C140.275 295.559 141.319 294.94 141.597 293.906C141.874 292.872 141.278 291.813 140.266 291.542C139.255 291.271 138.21 291.89 137.933 292.924C137.656 293.958 138.251 295.017 139.263 295.288Z" fill="#C9C2C2"/>
</g>
<g opacity="0.7">
<path opacity="0.7" d="M3.74432 274.976C4.75606 275.247 5.8009 274.628 6.07803 273.594C6.35517 272.56 5.75967 271.501 4.74793 271.23C3.73618 270.959 2.69135 271.578 2.41421 272.612C2.13708 273.647 2.73258 274.705 3.74432 274.976Z" fill="#C9C2C2"/>
<path opacity="0.7" d="M20.1789 279.379C21.1906 279.651 22.2355 279.032 22.5126 277.998C22.7897 276.963 22.1942 275.905 21.1825 275.634C20.1708 275.363 19.1259 275.982 18.8488 277.016C18.5716 278.05 19.1672 279.108 20.1789 279.379Z" fill="#C9C2C2"/>
<path opacity="0.7" d="M36.6271 283.787C37.6389 284.058 38.6837 283.439 38.9608 282.405C39.238 281.371 38.6425 280.312 37.6307 280.041C36.619 279.77 35.5742 280.389 35.297 281.423C35.0199 282.457 35.6154 283.516 36.6271 283.787Z" fill="#C9C2C2"/>
<path opacity="0.7" d="M55.3964 286.809C55.1204 287.839 54.0702 288.461 53.0627 288.191C52.0551 287.921 51.453 286.87 51.7326 285.827C52.0086 284.797 53.0587 284.175 54.0663 284.445C55.0703 284.728 55.6724 285.779 55.3964 286.809Z" fill="#C9C2C2"/>
<path opacity="0.7" d="M69.4973 292.594C70.509 292.865 71.5538 292.247 71.831 291.212C72.1081 290.178 71.5126 289.12 70.5009 288.849C69.4891 288.578 68.4443 289.196 68.1671 290.231C67.89 291.265 68.4855 292.323 69.4973 292.594Z" fill="#C9C2C2"/>
<path opacity="0.7" d="M88.2655 295.616C87.9895 296.646 86.9394 297.268 85.9318 296.998C84.9243 296.728 84.3221 295.678 84.6017 294.634C84.8777 293.604 85.9279 292.982 86.9354 293.252C87.9525 293.539 88.5415 294.586 88.2655 295.616Z" fill="#C9C2C2"/>
<path opacity="0.7" d="M102.38 301.405C103.392 301.676 104.437 301.058 104.714 300.023C104.991 298.989 104.395 297.931 103.384 297.66C102.372 297.389 101.327 298.007 101.05 299.042C100.773 300.076 101.368 301.134 102.38 301.405Z" fill="#C9C2C2"/>
<path opacity="0.7" d="M121.148 304.427C120.872 305.457 119.822 306.079 118.815 305.809C117.807 305.539 117.205 304.489 117.485 303.445C117.761 302.415 118.811 301.793 119.818 302.063C120.835 302.35 121.424 303.397 121.148 304.427Z" fill="#C9C2C2"/>
<path opacity="0.7" d="M135.263 310.216C136.275 310.487 137.319 309.869 137.597 308.834C137.874 307.8 137.278 306.742 136.266 306.471C135.255 306.2 134.21 306.818 133.933 307.853C133.656 308.887 134.251 309.945 135.263 310.216Z" fill="#C9C2C2"/>
</g>
<g opacity="0.7">
<path opacity="0.7" d="M2.06147 288.532C1.78548 289.562 0.735277 290.184 -0.272277 289.914C-1.27983 289.644 -1.87838 288.581 -1.60239 287.551C-1.3264 286.521 -0.289316 285.895 0.731323 286.169C1.74838 286.456 2.33746 287.502 2.06147 288.532Z" fill="#C9C2C2"/>
<path opacity="0.7" d="M18.5087 292.939C18.2327 293.969 17.1956 294.595 16.175 294.321C15.1674 294.051 14.5689 292.988 14.8449 291.958C15.1209 290.928 16.171 290.306 17.1786 290.576C18.1826 290.859 18.7847 291.909 18.5087 292.939Z" fill="#C9C2C2"/>
<path opacity="0.7" d="M34.9433 297.343C34.6673 298.373 33.6171 298.995 32.6096 298.725C31.602 298.455 31.0035 297.391 31.2794 296.361C31.5554 295.331 32.5925 294.706 33.6132 294.98C34.6302 295.266 35.2193 296.313 34.9433 297.343Z" fill="#C9C2C2"/>
<path opacity="0.7" d="M51.3925 301.75C51.1165 302.781 50.0663 303.402 49.0588 303.132C48.0512 302.862 47.4527 301.799 47.7287 300.769C48.0047 299.739 49.0548 299.117 50.0624 299.387C51.0663 299.67 51.6685 300.72 51.3925 301.75Z" fill="#C9C2C2"/>
<path opacity="0.7" d="M67.8271 306.154C67.5511 307.184 66.5009 307.806 65.4933 307.536C64.4858 307.266 63.8872 306.202 64.1632 305.172C64.4392 304.142 65.4763 303.517 66.4969 303.791C67.5009 304.074 68.103 305.124 67.8271 306.154Z" fill="#C9C2C2"/>
<path opacity="0.7" d="M84.2616 310.558C83.9856 311.588 82.9355 312.21 81.9279 311.94C80.9204 311.67 80.3218 310.606 80.5978 309.576C80.8738 308.546 81.924 307.924 82.9315 308.194C83.9486 308.481 84.5376 309.528 84.2616 310.558Z" fill="#C9C2C2"/>
<path opacity="0.7" d="M100.71 314.965C100.434 315.995 99.3837 316.617 98.3762 316.347C97.3686 316.077 96.7701 315.013 97.046 313.983C97.322 312.953 98.3591 312.328 99.3798 312.602C100.384 312.885 100.986 313.935 100.71 314.965Z" fill="#C9C2C2"/>
<path opacity="0.7" d="M117.144 319.369C116.868 320.399 115.818 321.021 114.811 320.751C113.803 320.481 113.205 319.417 113.481 318.387C113.757 317.357 114.807 316.735 115.814 317.005C116.831 317.292 117.42 318.339 117.144 319.369Z" fill="#C9C2C2"/>
<path opacity="0.7" d="M133.593 323.776C133.317 324.806 132.28 325.431 131.259 325.158C130.238 324.884 129.653 323.824 129.929 322.794C130.205 321.764 131.242 321.139 132.263 321.412C133.283 321.686 133.869 322.746 133.593 323.776Z" fill="#C9C2C2"/>
</g>
<g opacity="0.7">
<path opacity="0.7" d="M14.5058 307.881C14.2298 308.911 13.1927 309.537 12.1721 309.263C11.1645 308.993 10.5624 307.943 10.8419 306.899C11.1179 305.869 12.1681 305.248 13.1757 305.518C14.1832 305.788 14.7818 306.851 14.5058 307.881Z" fill="#C9C2C2"/>
<path opacity="0.7" d="M30.9403 312.285C30.6643 313.315 29.6142 313.937 28.6066 313.667C27.5991 313.397 26.9969 312.347 27.2765 311.303C27.5525 310.273 28.5896 309.648 29.6102 309.921C30.6309 310.195 31.2163 311.255 30.9403 312.285Z" fill="#C9C2C2"/>
<path opacity="0.7" d="M47.3896 316.692C47.1136 317.722 46.0634 318.344 45.0558 318.074C44.0483 317.804 43.4462 316.754 43.7257 315.711C44.0017 314.681 45.0519 314.059 46.0594 314.329C47.067 314.599 47.6655 315.662 47.3896 316.692Z" fill="#C9C2C2"/>
<path opacity="0.7" d="M63.8241 321.096C63.5481 322.126 62.498 322.748 61.4904 322.478C60.4829 322.208 59.8807 321.158 60.1603 320.114C60.4363 319.084 61.4734 318.459 62.494 318.732C63.5016 319.002 64.1001 320.066 63.8241 321.096Z" fill="#C9C2C2"/>
<path opacity="0.7" d="M80.2587 325.5C79.9827 326.53 78.9325 327.151 77.925 326.881C76.9174 326.611 76.3153 325.561 76.5949 324.518C76.8709 323.488 77.921 322.866 78.9286 323.136C79.9492 323.409 80.5347 324.47 80.2587 325.5Z" fill="#C9C2C2"/>
<path opacity="0.7" d="M96.7069 329.907C96.4309 330.937 95.3808 331.559 94.3732 331.289C93.3657 331.019 92.7635 329.969 93.0431 328.925C93.3191 327.895 94.3562 327.27 95.3768 327.543C96.3844 327.813 96.9829 328.877 96.7069 329.907Z" fill="#C9C2C2"/>
<path opacity="0.7" d="M113.142 334.311C112.866 335.341 111.815 335.962 110.808 335.693C109.8 335.423 109.198 334.372 109.478 333.329C109.754 332.299 110.804 331.677 111.811 331.947C112.832 332.221 113.417 333.281 113.142 334.311Z" fill="#C9C2C2"/>
<path opacity="0.7" d="M129.59 338.718C129.314 339.748 128.277 340.373 127.256 340.1C126.235 339.826 125.646 338.78 125.926 337.736C126.202 336.706 127.239 336.081 128.26 336.354C129.28 336.628 129.866 337.688 129.59 338.718Z" fill="#C9C2C2"/>
</g>
<g opacity="0.7">
<path opacity="0.7" d="M8.16816 324.205C9.1799 324.476 10.2247 323.857 10.5019 322.823C10.779 321.789 10.1835 320.73 9.17175 320.459C8.16001 320.188 7.11518 320.807 6.83805 321.841C6.56091 322.876 7.15642 323.934 8.16816 324.205Z" fill="#C9C2C2"/>
<path opacity="0.7" d="M24.6164 328.612C25.6281 328.883 26.673 328.265 26.9501 327.23C27.2272 326.196 26.6317 325.138 25.62 324.867C24.6083 324.596 23.5634 325.214 23.2863 326.248C23.0092 327.283 23.6047 328.341 24.6164 328.612Z" fill="#C9C2C2"/>
<path opacity="0.7" d="M43.3857 331.634C43.1097 332.664 42.0595 333.286 41.0519 333.016C40.0444 332.746 39.4423 331.696 39.7218 330.652C40.0014 329.609 41.048 329.001 42.0555 329.27C43.0631 329.54 43.6616 330.604 43.3857 331.634Z" fill="#C9C2C2"/>
<path opacity="0.7" d="M57.4865 337.42C58.4983 337.691 59.5431 337.072 59.8202 336.038C60.0974 335.003 59.5019 333.945 58.4901 333.674C57.4784 333.403 56.4335 334.022 56.1564 335.056C55.8793 336.09 56.4748 337.148 57.4865 337.42Z" fill="#C9C2C2"/>
<path opacity="0.7" d="M76.2548 340.441C75.9788 341.471 74.9286 342.093 73.9211 341.823C72.9135 341.553 72.3114 340.503 72.591 339.46C72.8706 338.416 73.9171 337.808 74.9247 338.078C75.9453 338.351 76.5308 339.411 76.2548 340.441Z" fill="#C9C2C2"/>
<path opacity="0.7" d="M90.3693 346.231C91.3811 346.502 92.4259 345.883 92.703 344.849C92.9802 343.814 92.3847 342.756 91.3729 342.485C90.3612 342.214 89.3164 342.833 89.0392 343.867C88.7621 344.901 89.3576 345.959 90.3693 346.231Z" fill="#C9C2C2"/>
<path opacity="0.7" d="M109.138 349.252C108.862 350.282 107.811 350.904 106.804 350.634C105.796 350.364 105.194 349.314 105.474 348.271C105.753 347.227 106.8 346.619 107.807 346.889C108.828 347.162 109.414 348.222 109.138 349.252Z" fill="#C9C2C2"/>
<path opacity="0.7" d="M123.252 355.042C124.264 355.313 125.309 354.694 125.586 353.66C125.863 352.625 125.267 351.567 124.256 351.296C123.244 351.025 122.199 351.644 121.922 352.678C121.645 353.712 122.24 354.77 123.252 355.042Z" fill="#C9C2C2"/>
</g>
<g opacity="0.7">
<path opacity="0.7" d="M4.16424 339.147C5.17598 339.418 6.22081 338.799 6.49795 337.765C6.77508 336.73 6.17959 335.672 5.16785 335.401C4.15611 335.13 3.11127 335.749 2.83413 336.783C2.55699 337.817 3.1525 338.876 4.16424 339.147Z" fill="#C9C2C2"/>
<path opacity="0.7" d="M20.6125 343.554C21.6242 343.825 22.6691 343.206 22.9462 342.172C23.2233 341.138 22.6278 340.079 21.6161 339.808C20.6043 339.537 19.5595 340.156 19.2824 341.19C19.0052 342.225 19.6007 343.283 20.6125 343.554Z" fill="#C9C2C2"/>
<path opacity="0.7" d="M39.3817 346.576C39.1057 347.606 38.0556 348.228 37.048 347.958C36.0405 347.688 35.4419 346.624 35.7179 345.594C35.9939 344.564 37.0441 343.942 38.0516 344.212C39.0592 344.482 39.6613 345.533 39.3817 346.576Z" fill="#C9C2C2"/>
<path opacity="0.7" d="M53.4826 352.361C54.4943 352.632 55.5392 352.014 55.8163 350.98C56.0934 349.945 55.4979 348.887 54.4862 348.616C53.4745 348.345 52.4296 348.964 52.1525 349.998C51.8754 351.032 52.4709 352.09 53.4826 352.361Z" fill="#C9C2C2"/>
<path opacity="0.7" d="M72.2509 355.383C71.9749 356.413 70.9247 357.035 69.9172 356.765C68.9096 356.495 68.3111 355.431 68.5871 354.401C68.863 353.371 69.9132 352.75 70.9208 353.02C71.9414 353.293 72.5305 354.34 72.2509 355.383Z" fill="#C9C2C2"/>
<path opacity="0.7" d="M86.3654 361.172C87.3772 361.443 88.422 360.825 88.6991 359.79C88.9763 358.756 88.3808 357.698 87.369 357.427C86.3573 357.156 85.3124 357.774 85.0353 358.809C84.7582 359.843 85.3537 360.901 86.3654 361.172Z" fill="#C9C2C2"/>
<path opacity="0.7" d="M105.134 364.194C104.858 365.224 103.808 365.846 102.8 365.576C101.792 365.306 101.194 364.243 101.47 363.213C101.746 362.183 102.796 361.561 103.804 361.831C104.824 362.104 105.413 363.151 105.134 364.194Z" fill="#C9C2C2"/>
<path opacity="0.7" d="M119.248 369.983C120.26 370.254 121.305 369.636 121.582 368.601C121.859 367.567 121.264 366.509 120.252 366.238C119.24 365.967 118.195 366.585 117.918 367.62C117.641 368.654 118.236 369.712 119.248 369.983Z" fill="#C9C2C2"/>
</g>
<g opacity="0.7">
<path opacity="0.7" d="M0.164241 354.075C1.17598 354.346 2.22082 353.728 2.49796 352.693C2.7751 351.659 2.17959 350.601 1.16785 350.33C0.156107 350.059 -0.888724 350.677 -1.16586 351.712C-1.443 352.746 -0.847499 353.804 0.164241 354.075Z" fill="#C9C2C2"/>
<path opacity="0.7" d="M16.6125 358.482C17.6242 358.753 18.6691 358.135 18.9462 357.1C19.2233 356.066 18.6278 355.008 17.6161 354.737C16.6043 354.466 15.5595 355.084 15.2824 356.119C15.0052 357.153 15.6007 358.211 16.6125 358.482Z" fill="#C9C2C2"/>
<path opacity="0.7" d="M35.3817 361.504C35.1058 362.534 34.0556 363.156 33.048 362.886C32.0405 362.616 31.4384 361.566 31.7179 360.523C31.9975 359.479 33.0441 358.871 34.0516 359.141C35.0556 359.424 35.6577 360.474 35.3817 361.504Z" fill="#C9C2C2"/>
<path opacity="0.7" d="M49.4826 367.29C50.4943 367.561 51.5392 366.942 51.8163 365.908C52.0935 364.874 51.4979 363.815 50.4862 363.544C49.4745 363.273 48.4296 363.892 48.1525 364.926C47.8754 365.96 48.4709 367.019 49.4826 367.29Z" fill="#C9C2C2"/>
<path opacity="0.7" d="M68.2509 370.312C67.9749 371.342 66.9247 371.963 65.9172 371.693C64.9096 371.423 64.3075 370.373 64.5871 369.33C64.8666 368.286 65.9132 367.678 66.9208 367.948C67.9378 368.235 68.5269 369.282 68.2509 370.312Z" fill="#C9C2C2"/>
<path opacity="0.7" d="M82.3654 376.101C83.3772 376.372 84.422 375.753 84.6991 374.719C84.9763 373.685 84.3808 372.626 83.369 372.355C82.3573 372.084 81.3124 372.703 81.0353 373.737C80.7582 374.771 81.3537 375.83 82.3654 376.101Z" fill="#C9C2C2"/>
<path opacity="0.7" d="M101.134 379.123C100.858 380.153 99.8075 380.775 98.8 380.505C97.7924 380.235 97.1903 379.184 97.4699 378.141C97.7495 377.098 98.796 376.489 99.8036 376.759C100.821 377.046 101.41 378.093 101.134 379.123Z" fill="#C9C2C2"/>
<path opacity="0.7" d="M115.248 384.912C116.26 385.183 117.305 384.564 117.582 383.53C117.859 382.496 117.264 381.437 116.252 381.166C115.24 380.895 114.195 381.514 113.918 382.548C113.641 383.582 114.236 384.641 115.248 384.912Z" fill="#C9C2C2"/>
</g>
<g opacity="0.7">
<path opacity="0.7" d="M14.9296 372.039C14.6536 373.069 13.6034 373.691 12.5959 373.421C11.5883 373.151 10.9862 372.1 11.2658 371.057C11.5418 370.027 12.5788 369.402 13.5995 369.675C14.6165 369.962 15.2056 371.009 14.9296 372.039Z" fill="#C9C2C2"/>
<path opacity="0.7" d="M31.3788 376.446C31.1028 377.476 30.0527 378.098 29.0451 377.828C28.0376 377.558 27.4354 376.508 27.715 375.464C27.991 374.434 29.0412 373.813 30.0487 374.083C31.0527 374.366 31.6548 375.416 31.3788 376.446Z" fill="#C9C2C2"/>
<path opacity="0.7" d="M47.8134 380.85C47.5374 381.88 46.4872 382.502 45.4797 382.232C44.4721 381.962 43.87 380.911 44.1496 379.868C44.4256 378.838 45.4626 378.213 46.4833 378.486C47.4872 378.77 48.0894 379.82 47.8134 380.85Z" fill="#C9C2C2"/>
<path opacity="0.7" d="M64.248 385.253C63.972 386.283 62.9218 386.905 61.9143 386.635C60.9067 386.365 60.3046 385.315 60.5841 384.272C60.8601 383.242 61.9103 382.62 62.9178 382.89C63.9349 383.177 64.5239 384.223 64.248 385.253Z" fill="#C9C2C2"/>
<path opacity="0.7" d="M80.6962 389.661C80.4202 390.691 79.37 391.313 78.3625 391.043C77.3549 390.773 76.7528 389.722 77.0324 388.679C77.3084 387.649 78.3454 387.024 79.3661 387.297C80.3701 387.58 80.9722 388.631 80.6962 389.661Z" fill="#C9C2C2"/>
<path opacity="0.7" d="M97.1308 394.064C96.8548 395.094 95.8046 395.716 94.7971 395.446C93.7895 395.176 93.1874 394.126 93.467 393.083C93.7429 392.053 94.7931 391.431 95.8007 391.701C96.8177 391.988 97.4068 393.034 97.1308 394.064Z" fill="#C9C2C2"/>
<path opacity="0.7" d="M113.579 398.472C113.303 399.502 112.266 400.127 111.245 399.854C110.225 399.58 109.636 398.533 109.915 397.49C110.191 396.46 111.228 395.835 112.249 396.108C113.27 396.382 113.855 397.442 113.579 398.472Z" fill="#C9C2C2"/>
</g>
<g opacity="0.7">
<path opacity="0.7" d="M10.9257 386.981C10.6497 388.011 9.59953 388.632 8.59198 388.362C7.58442 388.093 6.98229 387.042 7.26186 385.999C7.53785 384.969 8.57494 384.344 9.59558 384.617C10.6162 384.89 11.2017 385.951 10.9257 386.981Z" fill="#C9C2C2"/>
<path opacity="0.7" d="M27.3749 391.388C27.0989 392.418 26.0487 393.04 25.0412 392.77C24.0336 392.5 23.4315 391.45 23.7111 390.406C23.9871 389.376 25.0372 388.754 26.0448 389.024C27.0524 389.294 27.6509 390.358 27.3749 391.388Z" fill="#C9C2C2"/>
<path opacity="0.7" d="M43.8095 395.792C43.5335 396.822 42.4833 397.443 41.4758 397.173C40.4682 396.903 39.8661 395.853 40.1457 394.81C40.4216 393.78 41.4587 393.154 42.4794 393.428C43.4869 393.698 44.0855 394.762 43.8095 395.792Z" fill="#C9C2C2"/>
<path opacity="0.7" d="M60.244 400.195C59.9681 401.225 58.9179 401.847 57.9103 401.577C56.9028 401.307 56.3006 400.257 56.5802 399.214C56.8562 398.183 57.9064 397.562 58.9139 397.832C59.9346 398.105 60.52 399.165 60.244 400.195Z" fill="#C9C2C2"/>
<path opacity="0.7" d="M76.6923 404.603C76.4163 405.633 75.3661 406.254 74.3586 405.984C73.351 405.715 72.7489 404.664 73.0285 403.621C73.3045 402.591 74.3415 401.965 75.3622 402.239C76.3697 402.509 76.9683 403.573 76.6923 404.603Z" fill="#C9C2C2"/>
<path opacity="0.7" d="M93.1269 409.006C92.8509 410.036 91.8007 410.658 90.7931 410.388C89.7856 410.118 89.1835 409.068 89.463 408.025C89.739 406.995 90.7892 406.373 91.7968 406.643C92.8174 406.916 93.4028 407.976 93.1269 409.006Z" fill="#C9C2C2"/>
<path opacity="0.7" d="M109.575 413.414C109.299 414.444 108.262 415.069 107.241 414.795C106.221 414.522 105.632 413.475 105.911 412.432C106.187 411.402 107.224 410.776 108.245 411.05C109.266 411.323 109.851 412.384 109.575 413.414Z" fill="#C9C2C2"/>
</g>
<g opacity="0.7">
<path opacity="0.7" d="M4.60175 403.308C5.61349 403.579 6.65832 402.96 6.93546 401.926C7.2126 400.892 6.61709 399.833 5.60535 399.562C4.59361 399.291 3.54878 399.91 3.27164 400.944C2.9945 401.978 3.59001 403.037 4.60175 403.308Z" fill="#C9C2C2"/>
<path opacity="0.7" d="M23.371 406.33C23.095 407.36 22.0449 407.982 21.0373 407.712C20.0297 407.442 19.4276 406.391 19.7072 405.348C19.9868 404.305 21.0333 403.696 22.0409 403.966C23.0484 404.236 23.647 405.3 23.371 406.33Z" fill="#C9C2C2"/>
<path opacity="0.7" d="M37.4719 412.115C38.4836 412.386 39.5284 411.768 39.8056 410.733C40.0827 409.699 39.4872 408.641 38.4755 408.37C37.4637 408.099 36.4189 408.717 36.1418 409.752C35.8646 410.786 36.4601 411.844 37.4719 412.115Z" fill="#C9C2C2"/>
<path opacity="0.7" d="M56.2401 415.137C55.9642 416.167 54.914 416.789 53.9064 416.519C52.8989 416.249 52.2968 415.199 52.5763 414.155C52.8559 413.112 53.9025 412.503 54.91 412.773C55.9307 413.047 56.5161 414.107 56.2401 415.137Z" fill="#C9C2C2"/>
<path opacity="0.7" d="M70.3547 420.926C71.3664 421.197 72.4113 420.579 72.6884 419.544C72.9655 418.51 72.37 417.452 71.3583 417.181C70.3465 416.91 69.3017 417.528 69.0246 418.563C68.7474 419.597 69.3429 420.655 70.3547 420.926Z" fill="#C9C2C2"/>
<path opacity="0.7" d="M89.123 423.948C88.847 424.978 87.7968 425.6 86.7893 425.33C85.7817 425.06 85.1796 424.01 85.4591 422.966C85.7387 421.923 86.7853 421.315 87.7928 421.584C88.8135 421.858 89.3989 422.918 89.123 423.948Z" fill="#C9C2C2"/>
<path opacity="0.7" d="M103.237 429.737C104.249 430.008 105.294 429.39 105.571 428.355C105.848 427.321 105.253 426.263 104.241 425.992C103.229 425.721 102.185 426.339 101.907 427.374C101.63 428.408 102.226 429.466 103.237 429.737Z" fill="#C9C2C2"/>
</g>
<g opacity="0.7">
<path opacity="0.7" d="M2.92179 416.851C2.6458 417.881 1.59563 418.503 0.58808 418.233C-0.419474 417.963 -1.01802 416.899 -0.742032 415.869C-0.466042 414.839 0.571035 414.214 1.59168 414.487C2.60873 414.774 3.19778 415.821 2.92179 416.851Z" fill="#C9C2C2"/>
<path opacity="0.7" d="M19.371 421.258C19.095 422.288 18.0449 422.91 17.0373 422.64C16.0297 422.37 15.4312 421.306 15.7072 420.276C15.9832 419.246 17.0333 418.625 18.0409 418.895C19.0449 419.178 19.647 420.228 19.371 421.258Z" fill="#C9C2C2"/>
<path opacity="0.7" d="M35.8056 425.662C35.5296 426.692 34.4794 427.314 33.4719 427.044C32.4643 426.774 31.8658 425.71 32.1418 424.68C32.4177 423.65 33.4548 423.025 34.4755 423.298C35.4794 423.582 36.0816 424.632 35.8056 425.662Z" fill="#C9C2C2"/>
<path opacity="0.7" d="M52.2401 430.065C51.9642 431.095 50.914 431.717 49.9064 431.447C48.8989 431.177 48.3003 430.114 48.5763 429.084C48.8523 428.054 49.9025 427.432 50.91 427.702C51.9271 427.989 52.5161 429.035 52.2401 430.065Z" fill="#C9C2C2"/>
<path opacity="0.7" d="M68.6884 434.473C68.4124 435.503 67.3622 436.125 66.3547 435.855C65.3471 435.585 64.7486 434.521 65.0246 433.491C65.3006 432.461 66.3376 431.836 67.3583 432.109C68.3622 432.393 68.9644 433.443 68.6884 434.473Z" fill="#C9C2C2"/>
<path opacity="0.7" d="M85.123 438.877C84.847 439.907 83.7968 440.528 82.7893 440.258C81.7817 439.988 81.1832 438.925 81.4591 437.895C81.7351 436.865 82.7853 436.243 83.7928 436.513C84.8099 436.8 85.3989 437.847 85.123 438.877Z" fill="#C9C2C2"/>
<path opacity="0.7" d="M101.571 443.284C101.295 444.314 100.258 444.939 99.2375 444.666C98.2169 444.392 97.6314 443.332 97.9074 442.302C98.1834 441.272 99.2204 440.647 100.241 440.92C101.262 441.194 101.847 442.254 101.571 443.284Z" fill="#C9C2C2"/>
</g>
<g opacity="0.7">
<path opacity="0.7" d="M15.3671 436.2C15.0911 437.23 14.0409 437.852 13.0334 437.582C12.0258 437.312 11.4273 436.248 11.7033 435.218C11.9793 434.188 13.0294 433.566 14.037 433.836C15.041 434.12 15.6431 435.17 15.3671 436.2Z" fill="#C9C2C2"/>
<path opacity="0.7" d="M29.468 441.985C30.4797 442.257 31.5245 441.638 31.8017 440.604C32.0788 439.569 31.4833 438.511 30.4716 438.24C29.4598 437.969 28.415 438.588 28.1378 439.622C27.8607 440.656 28.4562 441.714 29.468 441.985Z" fill="#C9C2C2"/>
<path opacity="0.7" d="M48.2362 445.007C47.9602 446.037 46.9101 446.659 45.9025 446.389C44.895 446.119 44.2964 445.056 44.5724 444.026C44.8484 442.996 45.8986 442.374 46.9061 442.644C47.9232 442.93 48.5122 443.977 48.2362 445.007Z" fill="#C9C2C2"/>
<path opacity="0.7" d="M62.3508 450.796C63.3625 451.068 64.4073 450.449 64.6845 449.415C64.9616 448.38 64.3661 447.322 63.3544 447.051C62.3426 446.78 61.2978 447.399 61.0207 448.433C60.7435 449.467 61.339 450.525 62.3508 450.796Z" fill="#C9C2C2"/>
<path opacity="0.7" d="M81.119 453.818C80.8431 454.848 79.7929 455.47 78.7853 455.2C77.7778 454.93 77.1792 453.867 77.4552 452.837C77.7312 451.807 78.7814 451.185 79.7889 451.455C80.806 451.742 81.395 452.788 81.119 453.818Z" fill="#C9C2C2"/>
<path opacity="0.7" d="M95.2336 459.607C96.2453 459.878 97.2901 459.26 97.5673 458.226C97.8444 457.191 97.2489 456.133 96.2372 455.862C95.2254 455.591 94.1806 456.21 93.9035 457.244C93.6263 458.278 94.2218 459.336 95.2336 459.607Z" fill="#C9C2C2"/>
</g>
</g>
<defs>
<linearGradient id="paint0_linear_1_10596" x1="1225.38" y1="75.4501" x2="1346.12" y2="217.815" gradientUnits="userSpaceOnUse">
<stop stop-color="#E2E453"/>
<stop offset="1" stop-color="#F8BC23"/>
</linearGradient>
<linearGradient id="paint1_linear_1_10596" x1="-160.999" y1="215.314" x2="172.406" y2="187.06" gradientUnits="userSpaceOnUse">
<stop stop-color="#5E29B5"/>
<stop offset="1" stop-color="#C14EEA"/>
</linearGradient>
</defs>
</svg>
